<svg width="60" height="60" viewBox="0 0 60 60" fill="none" xmlns="http://www.w3.org/2000/svg">
<path d="M55.3125 11.25H45V4.6875H41.25V11.25H18.75V4.6875H15V11.25H4.6875C3.94185 11.2509 3.22698 11.5475 2.69972 12.0747C2.17246 12.602 1.87587 13.3168 1.875 14.0625V53.4375C1.87587 54.1832 2.17246 54.898 2.69972 55.4253C3.22698 55.9525 3.94185 56.2491 4.6875 56.25H55.3125C56.0582 56.2491 56.773 55.9525 57.3003 55.4253C57.8275 54.898 58.1241 54.1832 58.125 53.4375V14.0625C58.1241 13.3168 57.8275 12.602 57.3003 12.0747C56.773 11.5475 56.0582 11.2509 55.3125 11.25ZM54.375 52.5H5.625V15H15V19.6875H18.75V15H41.25V19.6875H45V15H54.375V52.5Z" fill="black"/>
<path d="M28.5231 36.7234L22.1498 30.3502L19.4982 33.0019L28.5231 42.0267L43.2436 27.3061L40.5919 24.6545L28.5231 36.7234Z" fill="black"/>
</svg>
