<svg width="61" height="60" viewBox="0 0 61 60" fill="none" xmlns="http://www.w3.org/2000/svg">
<path d="M46.125 17.5C46.125 18.3288 45.7958 19.1237 45.2097 19.7097C44.6237 20.2958 43.8288 20.625 43 20.625C42.1712 20.625 41.3763 20.2958 40.7903 19.7097C40.2042 19.1237 39.875 18.3288 39.875 17.5C39.875 16.6712 40.2042 15.8763 40.7903 15.2903C41.3763 14.7042 42.1712 14.375 43 14.375C43.8288 14.375 44.6237 14.7042 45.2097 15.2903C45.7958 15.8763 46.125 16.6712 46.125 17.5ZM39.25 5.125C34.9079 5.12765 30.7444 6.85372 27.6741 9.92405C24.6037 12.9944 22.8776 17.1579 22.875 21.5C22.875 22.4675 23 23.4 23.15 24.26C23.172 24.3683 23.1676 24.4802 23.1371 24.5864C23.1066 24.6926 23.051 24.7899 22.975 24.87L7.3875 40.46C6.09802 41.7488 5.37322 43.4969 5.3725 45.32V50.75C5.3725 53.165 7.3325 55.125 9.7475 55.125H15.9975C17.1578 55.125 18.2706 54.6641 19.0911 53.8436C19.9116 53.0231 20.3725 51.9103 20.3725 50.75V47.625H24.75C26.475 47.625 27.875 46.225 27.875 44.5V40.125H32.25C33.0593 40.1255 33.8372 39.8121 34.42 39.2507C35.0029 38.6893 35.3452 37.9237 35.375 37.115C36.615 37.435 37.925 37.625 39.25 37.625C43.5921 37.6224 47.7556 35.8963 50.826 32.8259C53.8963 29.7556 55.6224 25.5921 55.625 21.25C55.625 12.1725 48.2425 5.125 39.25 5.125ZM26.625 21.5C26.6276 18.1525 27.9586 14.9428 30.3257 12.5757C32.6928 10.2086 35.9025 8.87765 39.25 8.875C46.255 8.875 51.875 14.3275 51.875 21.25C51.8724 24.5975 50.5414 27.8072 48.1743 30.1743C45.8072 32.5414 42.5975 33.8724 39.25 33.875C37.55 33.875 35.8 33.4475 34.2375 32.775C33.9521 32.6524 33.6408 32.6027 33.3314 32.6302C33.022 32.6577 32.7243 32.7616 32.465 32.9327C32.2058 33.1037 31.9931 33.3364 31.846 33.61C31.6989 33.8836 31.6221 34.1894 31.6225 34.5V36.375H27.25C25.525 36.375 24.125 37.775 24.125 39.5V43.875H19.75C18.025 43.875 16.625 45.275 16.625 47V50.75C16.625 50.9158 16.5592 51.0747 16.4419 51.1919C16.3247 51.3092 16.1658 51.375 16 51.375H9.75C9.58424 51.375 9.42527 51.3092 9.30806 51.1919C9.19085 51.0747 9.125 50.9158 9.125 50.75V45.32C9.125 44.4925 9.455 43.695 10.04 43.11L25.63 27.5225C26.1318 27.0164 26.5042 26.3967 26.7157 25.7161C26.9272 25.0355 26.9716 24.3139 26.845 23.6125C26.7109 22.916 26.6372 22.2092 26.625 21.5Z" fill="black"/>
</svg>
