<svg width="159" height="26" viewBox="0 0 159 26" fill="none" xmlns="http://www.w3.org/2000/svg">
<path d="M13.5 0L16.4187 8.98278H25.8637L18.2225 14.5344L21.1412 23.5172L13.5 17.9656L5.85879 23.5172L8.77747 14.5344L1.13627 8.98278H10.5813L13.5 0Z" fill="white"/>
<path d="M46.5 0L49.4187 8.98278H58.8637L51.2225 14.5344L54.1412 23.5172L46.5 17.9656L38.8588 23.5172L41.7775 14.5344L34.1363 8.98278H43.5813L46.5 0Z" fill="white"/>
<path d="M79.5 0L82.4187 8.98278H91.8637L84.2225 14.5344L87.1412 23.5172L79.5 17.9656L71.8588 23.5172L74.7775 14.5344L67.1363 8.98278H76.5813L79.5 0Z" fill="white"/>
<path d="M112.5 0L115.419 8.98278H124.864L117.223 14.5344L120.141 23.5172L112.5 17.9656L104.859 23.5172L107.777 14.5344L100.136 8.98278H109.581L112.5 0Z" fill="white"/>
<path d="M145.5 0L148.419 8.98278H157.864L150.223 14.5344L153.141 23.5172L145.5 17.9656L137.859 23.5172L140.777 14.5344L133.136 8.98278H142.581L145.5 0Z" fill="black"/>
</svg>
