<svg width="60" height="60" viewBox="0 0 60 60" fill="none" xmlns="http://www.w3.org/2000/svg">
<path d="M38.3334 43.3334C38.3334 43.7754 38.1578 44.1993 37.8452 44.5119C37.5327 44.8244 37.1087 45 36.6667 45H13.3334C12.9667 45 12.6167 45.3334 12.3167 45.55L6.66671 50V23.3334C6.66671 22.8913 6.8423 22.4674 7.15486 22.1549C7.46742 21.8423 7.89135 21.6667 8.33337 21.6667H14.7667V18.3334H8.33337C7.00729 18.3334 5.73552 18.8602 4.79784 19.7978C3.86016 20.7355 3.33337 22.0073 3.33337 23.3334V53.3334C3.33585 53.6429 3.42449 53.9456 3.58933 54.2076C3.75418 54.4696 3.98874 54.6805 4.26671 54.8167C4.53451 54.9385 4.82977 54.9872 5.1225 54.958C5.41523 54.9287 5.69499 54.8224 5.93337 54.65L14.5167 48.3334H36.9167C37.5484 48.352 38.1772 48.2408 38.7641 48.0066C39.3511 47.7724 39.8837 47.4202 40.329 46.9718C40.7743 46.5233 41.1228 45.9883 41.3529 45.3997C41.583 44.8111 41.6898 44.1816 41.6667 43.55V41.6667H38.3334V43.3334Z" fill="black"/>
<path d="M51.6667 6.66663H23.3334C22.0073 6.66663 20.7355 7.19341 19.7978 8.13109C18.8602 9.06877 18.3334 10.3405 18.3334 11.6666V31.6666C18.3334 32.9927 18.8602 34.2645 19.7978 35.2022C20.7355 36.1398 22.0073 36.6666 23.3334 36.6666H45.9167L53.8834 42.85C54.1202 43.0251 54.3992 43.1343 54.692 43.1665C54.9847 43.1987 55.2808 43.1527 55.55 43.0333C55.8337 42.8982 56.0733 42.6857 56.2414 42.4203C56.4095 42.1549 56.4992 41.8474 56.5 41.5333V11.6666C56.5008 10.3689 55.9969 9.12177 55.095 8.18874C54.193 7.2557 52.9637 6.70988 51.6667 6.66663ZM53.3334 38.2333L47.5 33.6833C47.2091 33.4575 46.8516 33.3344 46.4834 33.3333H23.3334C22.8913 33.3333 22.4674 33.1577 22.1549 32.8451C21.8423 32.5326 21.6667 32.1087 21.6667 31.6666V11.6666C21.6667 11.2246 21.8423 10.8007 22.1549 10.4881C22.4674 10.1756 22.8913 9.99996 23.3334 9.99996H51.6667C52.1122 10.0404 52.5276 10.2423 52.8345 10.5677C53.1415 10.8931 53.3189 11.3195 53.3334 11.7666V38.2333Z" fill="black"/>
</svg>
