<svg width="61" height="60" viewBox="0 0 61 60" fill="none" xmlns="http://www.w3.org/2000/svg">
<path d="M30.5 56.25C25.3082 56.25 20.2331 54.7105 15.9163 51.8261C11.5995 48.9417 8.23496 44.842 6.24816 40.0455C4.26136 35.2489 3.74152 29.9709 4.75438 24.8789C5.76724 19.7869 8.26731 15.1096 11.9384 11.4385C15.6096 7.76733 20.2869 5.26726 25.3789 4.2544C30.4709 3.24154 35.7489 3.76137 40.5454 5.74817C45.342 7.73497 49.4417 11.0995 52.3261 15.4163C55.2105 19.7331 56.75 24.8083 56.75 30C56.75 36.9619 53.9844 43.6387 49.0615 48.5616C44.1387 53.4844 37.4619 56.25 30.5 56.25ZM30.5 7.50001C26.0499 7.50001 21.6998 8.81961 17.9997 11.2919C14.2996 13.7643 11.4157 17.2783 9.71271 21.3896C8.00974 25.501 7.56416 30.025 8.43233 34.3895C9.3005 38.7541 11.4434 42.7632 14.5901 45.9099C17.7368 49.0566 21.7459 51.1995 26.1105 52.0677C30.475 52.9358 34.999 52.4903 39.1104 50.7873C43.2217 49.0843 46.7357 46.2004 49.2081 42.5003C51.6804 38.8002 53 34.4501 53 30C53 24.0326 50.6295 18.3097 46.4099 14.0901C42.1903 9.87054 36.4674 7.50001 30.5 7.50001Z" fill="black"/>
<path d="M39.1063 41.25L28.625 30.7687V13.125H32.375V29.2125L41.75 38.6063L39.1063 41.25Z" fill="black"/>
</svg>
